<svg xmlns="http://www.w3.org/2000/svg" xmlns:xlink="http://www.w3.org/1999/xlink" width="37329" zoomAndPan="magnify" viewBox="0 0 27996.75 27623.999255" height="36832" preserveAspectRatio="xMidYMid meet" version="1.0"><defs><clipPath id="52e057a18f"><path d="M 114 9431 L 18952 9431 L 18952 26175 L 114 26175 Z M 114 9431 " clip-rule="nonzero"/></clipPath><clipPath id="bb6bc7fe22"><path d="M 19158.976562 9564.21875 L 1592.558594 8015.097656 L 0.0195312 26073.847656 L 17566.441406 27622.972656 Z M 19158.976562 9564.21875 " clip-rule="evenodd"/></clipPath><clipPath id="06ddb50e1a"><path d="M 17566.496094 27622.972656 L 17563.757812 27622.972656 L 0.0585938 26074.089844 L 1592.597656 8015.339844 L 19158.976562 9564.457031 L 19158.976562 9564.882812 Z M 17566.496094 27622.972656 " clip-rule="evenodd"/></clipPath><clipPath id="88c45c8c8d"><path d="M 14819 63 L 26837 63 L 26837 13087 L 14819 13087 Z M 14819 63 " clip-rule="nonzero"/></clipPath><clipPath id="7132150875"><path d="M 27995.847656 12524.933594 L 26783.09375 0.125 L 14258.28125 1212.878906 L 15471.039062 13737.6875 Z M 27995.847656 12524.933594 " clip-rule="evenodd"/></clipPath><clipPath id="81f2cca283"><path d="M 26783.09375 0.125 L 27995.847656 12524.933594 L 15471.039062 13737.6875 L 14258.28125 1212.878906 Z M 26783.09375 0.125 " clip-rule="evenodd"/></clipPath><clipPath id="1aaef8dee5"><path d="M 22476 1968 L 25422 1968 L 25422 4914 L 22476 4914 Z M 22476 1968 " clip-rule="nonzero"/></clipPath><clipPath id="012a3ed29a"><path d="M 27995.847656 12524.933594 L 26783.09375 0.125 L 14258.28125 1212.878906 L 15471.039062 13737.6875 Z M 27995.847656 12524.933594 " clip-rule="evenodd"/></clipPath><clipPath id="94e46b88be"><path d="M 26783.09375 0.125 L 27995.847656 12524.933594 L 15471.039062 13737.6875 L 14258.28125 1212.878906 Z M 26783.09375 0.125 " clip-rule="evenodd"/></clipPath><clipPath id="f2cfb6e6a7"><path d="M 22889 2382 L 25009 2382 L 25009 4502 L 22889 4502 Z M 22889 2382 " clip-rule="nonzero"/></clipPath><clipPath id="c588f1b794"><path d="M 27995.847656 12524.933594 L 26783.09375 0.125 L 14258.28125 1212.878906 L 15471.039062 13737.6875 Z M 27995.847656 12524.933594 " clip-rule="evenodd"/></clipPath><clipPath id="ad5a363790"><path d="M 26783.09375 0.125 L 27995.847656 12524.933594 L 15471.039062 13737.6875 L 14258.28125 1212.878906 Z M 26783.09375 0.125 " clip-rule="evenodd"/></clipPath></defs><g clip-path="url(#52e057a18f)"><g clip-path="url(#bb6bc7fe22)"><g clip-path="url(#06ddb50e1a)"><path fill="#b3e5ff" d="M 9439.53125 21674.203125 C 8075.820312 22814.179688 6673.574219 23901.671875 5132.660156 24796.472656 C 4230.300781 25320.449219 3302.96875 25792.707031 2283.964844 26054.476562 C 1895.453125 26154.269531 1503.019531 26208.167969 1100.417969 26150.761719 C 842.832031 26114.027344 606.707031 26027.199219 411.207031 25856.128906 C 120.449219 25601.707031 76.992188 25262.902344 137.921875 24909.230469 C 247.148438 24275.128906 528.117188 23705.132812 833.246094 23146.6875 C 861.804688 23094.40625 900.480469 22992.609375 960.429688 23027.980469 C 1038.761719 23074.21875 950.835938 23147.851562 923.367188 23200.824219 C 686.101562 23658.003906 451.121094 24116.320312 320.554688 24617.894531 C 266.683594 24824.839844 224.027344 25032.175781 240.160156 25253.644531 C 269.101562 25650.269531 543.304688 25865.816406 872.039062 25979.007812 C 991.847656 26020.253906 1115.617188 26033 1240.617188 26043.898438 C 1737.214844 26087.390625 2208.523438 25967.753906 2673.148438 25814.25 C 3780.855469 25448.277344 4790.8125 24884.617188 5769.085938 24261.828125 C 7233.402344 23329.632812 8582.011719 22244.445312 9894.011719 21112.433594 C 11505.894531 19721.667969 13002.214844 18212.949219 14458.652344 16662.191406 C 15932.824219 15092.5 17324.640625 13451.160156 18724.433594 11816.488281 C 18763.386719 11771.003906 18801.386719 11724.714844 18842.074219 11680.832031 C 18867.546875 11653.378906 18895.082031 11600.15625 18935.992188 11633.933594 C 18969.792969 11661.839844 18940.429688 11707.316406 18914.515625 11739.761719 C 18771.460938 11918.640625 18630.113281 12098.910156 18485.273438 12276.3125 C 17199.59375 13851.035156 15858.589844 15377.203125 14466.0625 16858.429688 C 12874.445312 18551.394531 11223.941406 20182.492188 9439.53125 21674.203125 Z M 17646.125 9431.148438 C 17567.378906 9456.292969 17555.089844 9525.09375 17526.863281 9578.933594 C 16773.882812 11015.828125 15912.65625 12385.265625 14957.816406 13696.167969 C 13418.09375 15810.105469 11771.089844 17836.863281 10015.507812 19775.769531 C 8771.015625 21150.226562 7460.480469 22454.046875 5982.863281 23581.042969 C 5217.148438 24165.046875 4427.722656 24713.042969 3540.8125 25101.898438 C 2993.925781 25341.679688 2433.96875 25519.464844 1820.53125 25429.105469 C 1410.269531 25368.679688 1104.566406 25072.074219 1058.972656 24663.285156 C 1019.382812 24308.160156 1093.945312 23967.621094 1192.351562 23630.167969 C 1301.132812 23257.191406 1471.789062 22910.296875 1640.277344 22562.402344 C 1653.820312 22534.453125 1698.511719 22508.949219 1653.9375 22474.167969 C 1603.824219 22435.0625 1587.070312 22491.664062 1560.726562 22513.03125 C 1542.273438 22528.023438 1529.554688 22551.449219 1517.644531 22572.980469 C 1176 23189.867188 918.925781 23836.328125 923.011719 24552.519531 C 925.136719 24931.398438 1084.109375 25247.535156 1438.796875 25436.601562 C 1724.296875 25588.804688 2029.761719 25608.328125 2342.789062 25578.324219 C 2886.214844 25526.152344 3388.238281 25338.488281 3871.832031 25097.894531 C 4965.289062 24553.828125 5933.441406 23824.980469 6867.394531 23048.121094 C 8278.621094 21874.238281 9536.238281 20545.722656 10743.722656 19168.597656 C 12166.15625 17546.320312 13515.402344 15864.878906 14789.8125 14123.660156 C 15846.054688 12680.527344 16814.453125 11182.992188 17619.035156 9583.269531 C 17641.566406 9538.425781 17673.886719 9498.070312 17646.125 9431.148438 Z M 17096.300781 11397.382812 C 17120.957031 11358.90625 17164.203125 11317.890625 17102.285156 11279.238281 C 17017.730469 11277.449219 16999.519531 11342.402344 16968.355469 11390.871094 C 16182.484375 12613.679688 15341.339844 13797.441406 14450.230469 14945.691406 C 14182.070312 15291.230469 13906.9375 15631.296875 13636.144531 15974.8125 C 13620.359375 15994.8125 13576.605469 16015.027344 13607.582031 16046.4375 C 13638.601562 16077.894531 13669.382812 16059.34375 13692.457031 16024.308594 C 13706.03125 16003.730469 13727.882812 15988.867188 13743.972656 15969.707031 C 14807.75 14702.074219 15801.4375 13382.15625 16708.957031 11998.007812 C 16839.582031 11798.730469 16967.738281 11597.910156 17096.300781 11397.382812 Z M 15788.410156 13553.542969 C 14976.960938 14609.742188 14146.421875 15650.539062 13272.347656 16655.878906 C 13000.429688 16968.617188 12718.507812 17272.589844 12443.542969 17582.714844 C 12425.800781 17602.710938 12368.789062 17625.382812 12411.867188 17665.058594 C 12449.109375 17699.363281 12473.246094 17656.152344 12496.632812 17632.5625 C 12623.382812 17504.742188 12754.152344 17380.597656 12875.457031 17247.824219 C 13774.554688 16263.652344 14628.074219 15241.117188 15446 14188.726562 C 15617.113281 13968.558594 15787.914062 13748.105469 15954.589844 13524.605469 C 15974.40625 13498.015625 16046.90625 13449.015625 15954.199219 13413.054688 C 15864.648438 13420.585938 15832.019531 13496.796875 15788.410156 13553.542969 Z M 2333.941406 21848.34375 C 2364.957031 21794.746094 2459.660156 21716.722656 2394.925781 21675.261719 C 2324.949219 21630.441406 2291.597656 21747.710938 2259.144531 21800.15625 C 1820.566406 22508.25 1509.324219 23271.800781 1298.308594 24075.382812 C 1262.511719 24211.695312 1210.75 24354.609375 1247.464844 24504.558594 C 1256.425781 24541.144531 1263.523438 24579.054688 1303.132812 24580.246094 C 1347.925781 24581.597656 1373.90625 24550.820312 1374.539062 24502.085938 C 1375.292969 24447.140625 1378.9375 24392.28125 1381.3125 24337.351562 C 1385.378906 24337.625 1389.484375 24337.902344 1393.550781 24338.21875 C 1399.273438 24273.3125 1395.34375 24205.769531 1412.179688 24143.890625 C 1630.191406 23343.054688 1916.691406 22569.691406 2333.941406 21848.34375 Z M 2333.941406 21848.34375 " fill-opacity="1" fill-rule="nonzero"/></g></g></g><g clip-path="url(#88c45c8c8d)"><g clip-path="url(#7132150875)"><g clip-path="url(#81f2cca283)"><path fill="#b3e5ff" d="M 22281.582031 13029.605469 L 24508.441406 8376.445312 C 24518.917969 8354.410156 24521.101562 8329.375 24514.214844 8305.816406 L 24188.519531 7175.117188 C 25570.003906 5313.664062 26588.335938 3547.328125 26796.21875 1779.390625 C 26799.546875 1768.261719 26801.246094 1756.882812 26800.589844 1744.9375 C 26859.871094 1212.78125 26846.863281 680.417969 26746.390625 145.214844 C 26737.5 97.828125 26695.9375 63.515625 26647.726562 63.878906 C 26103.089844 67.96875 25578.132812 157.4375 25067.246094 317.8125 C 25055.878906 319.316406 25045.539062 323.117188 25035.527344 328.292969 C 23339.894531 871.246094 21801.371094 2209.78125 20239.167969 3922.976562 L 19066.886719 3820.273438 C 19042.554688 3818.125 19018.296875 3824.980469 18998.679688 3839.488281 L 14859.300781 6917.714844 C 14831.199219 6938.65625 14816.28125 6972.730469 14819.625 7007.242188 C 14819.863281 7009.722656 14820.210938 7012.289062 14820.660156 7014.847656 C 14827.15625 7051.957031 14854.007812 7082.1875 14890.097656 7093.109375 L 17455.640625 7865.6875 L 17195.628906 8181.449219 C 17178.164062 8202.660156 17170.90625 8228.988281 17173.363281 8254.375 C 17175.820312 8279.761719 17187.996094 8304.207031 17209.207031 8321.671875 L 18576.996094 9447.964844 L 18301.132812 9782.976562 C 18283.667969 9804.1875 18276.40625 9830.515625 18278.867188 9855.902344 C 18281.324219 9881.289062 18293.5 9905.734375 18314.710938 9923.199219 L 18669.085938 10215.003906 C 18711.613281 10250.023438 18774.289062 10243.957031 18809.308594 10201.425781 L 19085.171875 9866.414062 L 20452.957031 10992.703125 C 20495.488281 11027.722656 20558.160156 11021.65625 20593.179688 10979.125 L 20853.191406 10663.367188 L 22103.636719 13033.023438 C 22121.28125 13066.347656 22156.089844 13086.800781 22193.765625 13086.15625 C 22231.332031 13085.421875 22265.34375 13063.507812 22281.582031 13029.605469 Z M 22433.398438 5800.152344 C 22468.417969 5757.625 22462.351562 5694.949219 22419.820312 5659.929688 L 22065.449219 5368.125 C 22022.917969 5333.105469 21960.242188 5339.171875 21925.222656 5381.703125 L 19058.761719 8862.789062 L 17723.929688 7763.636719 L 17702.992188 7473.980469 C 17692.066406 7321.886719 17739.535156 7173.25 17836.617188 7055.242188 C 20293.007812 4071.710938 22474.65625 1424.386719 24972.125 560.453125 C 24972.699219 582.917969 24973.902344 606.726562 24976.4375 632.90625 C 24998.4375 860.101562 25105.417969 1215.5 25508.839844 1547.597656 C 25958.386719 1917.773438 26365.207031 1921.125 26580.640625 1885.148438 C 26211.804688 4501.886719 24032.316406 7150.804688 21575.578125 10133.871094 C 21478.386719 10251.785156 21341.617188 10326.890625 21190.257812 10345.347656 L 20901.863281 10380.382812 L 19566.933594 9281.238281 Z M 26565.355469 264.542969 C 26645.597656 735.542969 26655.480469 1205.644531 26606.585938 1676.535156 C 26466.542969 1711.617188 26079.722656 1759.78125 25635.394531 1393.90625 C 25189.980469 1027.132812 25163.238281 640.34375 25171.390625 495.011719 C 25624.25 356.671875 26087.605469 276.070312 26565.355469 264.542969 Z M 15137.210938 6959.472656 L 19087.230469 4022.101562 L 20071.429688 4108.28125 C 19290.480469 4976.773438 18501.894531 5933.894531 17683.011719 6928.578125 C 17553.242188 7086.285156 17489.804688 7285.015625 17504.480469 7488.296875 L 17518.078125 7676.265625 Z M 17412.753906 8231.195312 L 17641.226562 7953.621094 L 18932.113281 9016.589844 L 18703.632812 9294.0625 Z M 18518.246094 9832.621094 L 22015.710938 5585.347656 L 22216.285156 5750.507812 L 18718.828125 9997.878906 Z M 19211.816406 9712.613281 L 19440.296875 9435.140625 L 20731.183594 10498.105469 L 20502.601562 10775.589844 Z M 21027.027344 10565.855469 L 21214.210938 10543.125 C 21416.429688 10518.539062 21599.398438 10418.144531 21729.179688 10260.535156 C 22548.277344 9266.027344 23336.328125 8308.5625 24038.84375 7375.390625 L 24312.238281 8324.671875 L 22187.28125 12764.867188 Z M 21027.027344 10565.855469 " fill-opacity="1" fill-rule="nonzero"/></g></g></g><g clip-path="url(#1aaef8dee5)"><g clip-path="url(#012a3ed29a)"><g clip-path="url(#94e46b88be)"><path fill="#b3e5ff" d="M 25414.855469 3299.902344 C 25376.933594 2908.289062 25188.769531 2554.945312 24885.09375 2304.976562 C 24581.40625 2054.910156 24198.625 1938.023438 23807.011719 1975.941406 C 23415.496094 2013.851562 23062.152344 2202.015625 22812.085938 2505.703125 C 22553.945312 2819.078125 22447.5 3208.355469 22483.84375 3583.707031 C 22520.1875 3959.058594 22699.335938 4320.582031 23012.808594 4578.710938 C 23639.753906 5094.871094 24569.652344 5004.828125 25085.820312 4377.984375 C 25335.984375 4074.289062 25452.765625 3691.417969 25414.855469 3299.902344 Z M 23139.457031 4424.910156 C 22597.445312 3978.503906 22519.679688 3174.339844 22965.886719 2632.347656 C 23182.195312 2369.765625 23487.65625 2207.058594 23826.214844 2174.277344 C 24164.773438 2141.496094 24495.875 2242.566406 24758.449219 2458.777344 C 25021.019531 2674.988281 25183.734375 2980.546875 25216.519531 3319.109375 C 25249.300781 3657.667969 25148.230469 3988.769531 24932.019531 4251.339844 C 24485.722656 4793.441406 23681.566406 4871.304688 23139.457031 4424.910156 Z M 23139.457031 4424.910156 " fill-opacity="1" fill-rule="nonzero"/></g></g></g><g clip-path="url(#f2cfb6e6a7)"><g clip-path="url(#c588f1b794)"><g clip-path="url(#ad5a363790)"><path fill="#b3e5ff" d="M 24622.753906 2623.566406 C 24171.574219 2252.046875 23502.191406 2316.859375 23130.671875 2768.039062 C 22944.914062 2993.628906 22868.234375 3273.722656 22894.398438 3543.953125 C 22920.566406 3814.1875 23049.558594 4074.363281 23275.148438 4260.121094 C 23726.328125 4631.640625 24395.710938 4566.828125 24767.230469 4115.648438 C 25138.847656 3664.457031 25074.042969 2995.171875 24622.753906 2623.566406 Z M 23401.894531 4106.3125 C 23035.554688 3804.65625 22982.914062 3261.015625 23284.574219 2894.675781 C 23586.328125 2528.328125 24129.769531 2475.707031 24496.207031 2777.355469 C 24679.378906 2928.183594 24784.117188 3139.460938 24805.367188 3358.917969 C 24826.617188 3578.378906 24764.359375 3805.820312 24613.527344 3988.992188 C 24311.773438 4355.339844 23768.230469 4407.96875 23401.894531 4106.3125 Z M 23401.894531 4106.3125 " fill-opacity="1" fill-rule="nonzero"/></g></g></g></svg>