<svg xmlns="http://www.w3.org/2000/svg" xmlns:xlink="http://www.w3.org/1999/xlink" width="17694" zoomAndPan="magnify" viewBox="0 0 13270.5 11726.249572" height="15635" preserveAspectRatio="xMidYMid meet" version="1.0"><defs><clipPath id="0a2cf309eb"><path d="M 96 3431 L 9412 3431 L 9412 10215 L 96 10215 Z M 96 3431 " clip-rule="nonzero"/></clipPath><clipPath id="09db043eb8"><path d="M 9617.523438 3572.785156 L 1687.632812 1931.40625 L 0.195312 10083.816406 L 7930.089844 11725.195312 Z M 9617.523438 3572.785156 " clip-rule="evenodd"/></clipPath><clipPath id="4c77bdfab3"><path d="M 7930.375 11725.195312 L 7929.628906 11725.195312 L 0.453125 10083.964844 L 1687.886719 1931.554688 L 9617.523438 3572.878906 L 9617.523438 3574.167969 Z M 7930.375 11725.195312 " clip-rule="evenodd"/></clipPath><clipPath id="f80008aa1a"><path d="M 7950.695312 12 L 13257 12 L 13257 5318.660156 L 7950.695312 5318.660156 Z M 7950.695312 12 " clip-rule="nonzero"/></clipPath></defs><g clip-path="url(#0a2cf309eb)"><g clip-path="url(#09db043eb8)"><g clip-path="url(#4c77bdfab3)"><path fill="#e67300" d="M 4539.984375 8579.328125 C 3857.289062 9026.734375 3159.808594 9448.148438 2409.332031 9774.292969 C 1969.851562 9965.273438 1521.738281 10131.335938 1043.007812 10196.507812 C 860.484375 10221.351562 678.617188 10225.054688 498.03125 10177.441406 C 382.492188 10146.980469 279.410156 10094.808594 199.339844 10006.375 C 80.257812 9874.851562 78.464844 9718 125.078125 9559.921875 C 208.644531 9276.503906 367.136719 9031.460938 536.035156 8792.976562 C 551.84375 8770.648438 574.902344 8726.273438 600.363281 8745.597656 C 633.632812 8770.855469 589.609375 8799.765625 574.261719 8822.464844 C 441.707031 9018.371094 310.132812 9214.917969 223.886719 9436.753906 C 188.300781 9528.28125 157.808594 9620.582031 153.382812 9722.460938 C 145.476562 9904.914062 259.078125 10017.824219 403 10086.949219 C 455.457031 10112.136719 511.230469 10124.539062 567.667969 10136.160156 C 791.867188 10182.425781 1013.210938 10152.9375 1233.308594 10107.644531 C 1758.042969 9999.664062 2248.714844 9796.308594 2728.078125 9564.296875 C 3445.605469 9217.019531 4118.496094 8793.800781 4777.179688 8347.273438 C 5586.421875 7798.683594 6349.230469 7190.140625 7096.082031 6560.300781 C 7852.03125 5922.765625 8574.226562 5248.167969 9299.707031 4577.039062 C 9319.894531 4558.363281 9339.691406 4539.273438 9360.585938 4521.421875 C 9373.664062 4510.253906 9389.054688 4487.445312 9405.917969 4505.027344 C 9419.851562 4519.554688 9404.039062 4538.738281 9390.492188 4552.15625 C 9315.71875 4626.136719 9241.652344 4700.839844 9166.144531 4774.050781 C 8495.910156 5423.910156 7803.015625 6048.675781 7089.015625 6650.203125 C 6272.9375 7337.714844 5433.292969 7993.875 4539.984375 8579.328125 Z M 8934.796875 3431.628906 C 8897.539062 3438.90625 8888.273438 3469.632812 8872.53125 3492.691406 C 8452.609375 4108.03125 7986.898438 4686.839844 7481.605469 5233.96875 C 6666.792969 6116.261719 5807.6875 6953.082031 4903.730469 7744.046875 C 4262.9375 8304.75 3595.777344 8829.722656 2861.816406 9265.144531 C 2481.472656 9490.777344 2092.226562 9698.726562 1666.988281 9828.894531 C 1404.773438 9909.164062 1139.902344 9960.457031 864.902344 9886.59375 C 680.984375 9837.199219 557.328125 9685.640625 558.285156 9496.753906 C 559.128906 9332.664062 611.257812 9181.300781 674.105469 9032.617188 C 743.570312 8868.28125 839.871094 8719.132812 935.238281 8569.414062 C 942.902344 8557.386719 964.644531 8548.128906 946.164062 8529.894531 C 925.386719 8509.390625 914.734375 8534.316406 901.582031 8542.660156 C 892.367188 8548.515625 885.320312 8558.523438 878.738281 8567.710938 C 690.074219 8830.910156 538.414062 9112.101562 502.164062 9438.996094 C 482.972656 9611.925781 538.660156 9764.585938 690.382812 9869.703125 C 812.507812 9954.320312 950.800781 9979.480469 1095.179688 9982.453125 C 1345.828125 9987.574219 1584.804688 9928.691406 1818.1875 9844.683594 C 2345.902344 9654.707031 2826.292969 9373.78125 3293.636719 9069.136719 C 3999.8125 8608.792969 4644.148438 8069.742188 5268.203125 7505.851562 C 6003.351562 6841.578125 6708.265625 6146.425781 7382.226562 5420.019531 C 7940.808594 4817.976562 8462.21875 4186.4375 8914.34375 3499.574219 C 8927.007812 3480.316406 8943.898438 3463.628906 8934.796875 3431.628906 Z M 8579.367188 4299.226562 C 8592.660156 4282.988281 8614.570312 4266.582031 8588.386719 4245.65625 C 8549.914062 4240.339844 8538.148438 4268.996094 8521.355469 4289.449219 C 8097.820312 4805.386719 7651.152344 5300.574219 7183.585938 5776.902344 C 7042.878906 5920.242188 6899.285156 6060.714844 6757.488281 6202.992188 C 6749.226562 6211.277344 6728.191406 6218.167969 6740.648438 6234.144531 C 6753.125 6250.144531 6768.152344 6243.320312 6780.542969 6228.566406 C 6787.828125 6219.902344 6798.585938 6214.285156 6806.945312 6206.402344 C 7359.625 5684.808594 7883.117188 5135.632812 8370.726562 4552.578125 C 8440.910156 4468.632812 8510.054688 4383.851562 8579.367188 4299.226562 Z M 7868.054688 5213.117188 C 7441.722656 5651.699219 7007.5 6082.238281 6555.304688 6494.289062 C 6414.632812 6622.46875 6269.863281 6746.117188 6127.941406 6872.941406 C 6118.785156 6881.117188 6091.574219 6888.425781 6109.109375 6908.8125 C 6124.269531 6926.445312 6137.578125 6908.019531 6149.503906 6898.503906 C 6214.121094 6846.945312 6280.375 6797.277344 6342.773438 6743.171875 C 6805.25 6342.109375 7248.984375 5921.121094 7678.070312 5484.621094 C 7767.835938 5393.300781 7857.472656 5301.835938 7945.394531 5208.761719 C 7955.847656 5197.6875 7991.527344 5179.195312 7951.152344 5157.859375 C 7909.90625 5156.527344 7890.96875 5189.550781 7868.054688 5213.117188 Z M 1289.640625 8280.621094 C 1306.640625 8257.828125 1353.988281 8227.277344 1326.667969 8204.921875 C 1297.132812 8180.753906 1275.679688 8232.46875 1258.085938 8254.664062 C 1020.355469 8554.308594 837.753906 8886.023438 698.742188 9241.332031 C 675.15625 9301.601562 643.941406 9364.035156 652.710938 9434.386719 C 654.851562 9451.550781 656.070312 9469.21875 674.074219 9471.871094 C 694.433594 9474.871094 707.921875 9462.214844 710.804688 9440.019531 C 714.074219 9415 718.65625 9390.167969 722.660156 9365.238281 C 724.5 9365.582031 726.359375 9365.925781 728.195312 9366.285156 C 734.261719 9336.984375 736.0625 9305.96875 747.035156 9278.636719 C 889.09375 8924.957031 1060.933594 8587.449219 1289.640625 8280.621094 Z M 1289.640625 8280.621094 " fill-opacity="1" fill-rule="nonzero"/></g></g></g><g clip-path="url(#f80008aa1a)"><path fill="#e67300" d="M 7971.132812 2424.589844 L 9838.035156 1298.183594 C 9846.878906 1292.875 9857.324219 1290.9375 9867.515625 1292.875 L 10356.476562 1383.839844 C 11083.324219 726.808594 11784.953125 226.433594 12520.265625 66.957031 C 12524.816406 65.105469 12529.53125 63.925781 12534.585938 63.714844 C 12756.050781 17.097656 12980.550781 0.882812 13209.808594 21.351562 C 13230.105469 23.160156 13246.234375 39.25 13248.042969 59.546875 C 13268.511719 288.84375 13252.253906 513.34375 13205.597656 734.808594 C 13205.425781 739.652344 13204.25 744.160156 13202.480469 748.582031 C 13043.128906 1484.066406 12542.671875 2185.859375 11885.558594 2912.878906 L 11976.519531 3401.882812 C 11978.414062 3412.03125 11976.519531 3422.515625 11971.210938 3431.359375 L 10844.804688 5298.222656 C 10837.140625 5310.898438 10823.410156 5318.5625 10808.757812 5318.5625 C 10807.703125 5318.5625 10806.609375 5318.519531 10805.515625 5318.433594 C 10789.636719 5317.214844 10775.824219 5307.148438 10769.761719 5292.410156 L 10340.21875 4244.539062 L 10217.96875 4366.789062 C 10209.757812 4375.003906 10198.976562 4379.128906 10188.195312 4379.128906 C 10177.414062 4379.128906 10166.632812 4375.003906 10158.421875 4366.789062 L 9628.867188 3837.234375 L 9499.160156 3966.9375 C 9490.949219 3975.148438 9480.167969 3979.277344 9469.386719 3979.277344 C 9458.605469 3979.277344 9447.828125 3975.148438 9439.613281 3966.9375 L 9302.414062 3829.738281 C 9285.949219 3813.273438 9285.949219 3786.65625 9302.414062 3770.191406 L 9432.117188 3640.488281 L 8902.5625 3110.929688 C 8886.097656 3094.464844 8886.097656 3067.847656 8902.5625 3051.382812 L 9024.8125 2929.132812 L 7976.945312 2499.59375 C 7962.203125 2493.527344 7952.183594 2479.714844 7950.917969 2463.839844 C 7949.695312 2448.003906 7957.53125 2432.804688 7971.132812 2424.589844 Z M 11006.429688 2066.21875 C 11022.894531 2049.753906 11049.511719 2049.753906 11065.976562 2066.21875 L 11203.175781 2203.417969 C 11219.640625 2219.886719 11219.640625 2246.5 11203.175781 2262.964844 L 9855.425781 3610.714844 L 10372.226562 4127.511719 L 10494.9375 4124.519531 C 10559.371094 4122.921875 10619.96875 4096.894531 10665.660156 4051.246094 C 11820.789062 2896.285156 12845.664062 1870.609375 13107.390625 784.710938 C 13097.914062 785.386719 13087.851562 785.847656 13076.734375 785.847656 C 12980.253906 785.847656 12826.378906 755.320312 12670.226562 599.125 C 12496.179688 425.078125 12478.199219 254.0625 12484.554688 161.960938 C 11398.703125 423.730469 10373.066406 1448.5625 9218.148438 2603.652344 C 9172.5 2649.34375 9146.472656 2709.941406 9144.875 2774.371094 L 9141.882812 2897.128906 L 9658.679688 3413.96875 Z M 13166.980469 102.375 C 12965.558594 87.804688 12767.378906 102.796875 12571.265625 142.546875 C 12562.210938 202.894531 12557.703125 367.59375 12729.730469 539.621094 C 12902.179688 712.070312 13065.996094 707.5625 13126.804688 698.214844 C 13166.558594 502.058594 13181.59375 303.835938 13166.980469 102.375 Z M 10815.914062 5183.003906 L 11890.777344 3401.542969 L 11814.429688 2990.996094 C 11480.863281 3354.925781 11110.320312 3725.679688 10725.207031 4110.707031 C 10664.144531 4171.726562 10583.121094 4206.511719 10497.003906 4208.617188 L 10417.367188 4210.554688 Z M 10188.195312 4277.472656 L 10295.664062 4170.042969 L 9795.882812 3670.261719 L 9688.453125 3777.6875 Z M 9469.429688 3877.617188 L 11113.816406 2233.191406 L 11036.160156 2155.539062 L 9391.734375 3799.964844 Z M 9491.664062 3580.941406 L 9599.09375 3473.511719 L 9099.308594 2973.730469 L 8991.882812 3081.199219 Z M 9058.753906 2852.027344 L 9060.691406 2772.351562 C 9062.796875 2686.273438 9097.582031 2605.207031 9158.601562 2544.1875 C 9543.632812 2159.074219 9914.34375 1788.535156 10278.316406 1454.964844 L 9867.808594 1378.617188 L 8086.351562 2453.480469 Z M 9058.753906 2852.027344 " fill-opacity="1" fill-rule="nonzero"/></g><path fill="#e67300" d="M 11936.847656 710.046875 C 12103.148438 710.046875 12259.46875 774.816406 12377.003906 892.394531 C 12494.578125 1009.96875 12559.347656 1166.246094 12559.347656 1332.546875 C 12559.347656 1498.804688 12494.578125 1655.121094 12377.003906 1772.699219 C 12255.679688 1894.066406 12096.242188 1954.707031 11936.847656 1954.707031 C 11777.457031 1954.707031 11618.0625 1894.066406 11496.695312 1772.699219 C 11254.003906 1529.964844 11254.003906 1135.082031 11496.695312 892.390625 C 11614.273438 774.773438 11770.589844 710.046875 11936.847656 710.046875 Z M 11556.242188 1713.152344 C 11766.128906 1922.996094 12107.613281 1922.953125 12317.457031 1713.152344 C 12419.113281 1611.453125 12475.125 1476.316406 12475.125 1332.546875 C 12475.125 1188.777344 12419.113281 1053.597656 12317.457031 951.9375 C 12215.796875 850.28125 12080.617188 794.273438 11936.847656 794.273438 C 11793.078125 794.273438 11657.898438 850.28125 11556.242188 951.9375 C 11346.355469 1161.78125 11346.355469 1503.265625 11556.242188 1713.152344 Z M 11556.242188 1713.152344 " fill-opacity="1" fill-rule="nonzero"/><path fill="#e67300" d="M 12253.65625 1015.738281 C 12428.335938 1190.417969 12428.335938 1474.671875 12253.65625 1649.351562 C 12166.316406 1736.695312 12051.605469 1780.363281 11936.847656 1780.363281 C 11822.09375 1780.363281 11707.382812 1736.695312 11620.042969 1649.351562 C 11445.363281 1474.671875 11445.363281 1190.417969 11620.042969 1015.738281 C 11794.722656 841.015625 12078.933594 841.015625 12253.65625 1015.738281 Z M 11679.585938 1589.765625 C 11821.421875 1731.597656 12052.277344 1731.597656 12194.109375 1589.765625 C 12335.945312 1447.890625 12335.945312 1217.117188 12194.109375 1075.242188 C 12123.195312 1004.324219 12030.042969 968.867188 11936.847656 968.867188 C 11843.65625 968.867188 11750.503906 1004.324219 11679.585938 1075.242188 C 11537.753906 1217.117188 11537.753906 1447.933594 11679.585938 1589.765625 Z M 11679.585938 1589.765625 " fill-opacity="1" fill-rule="nonzero"/></svg>